<svg xmlns="http://www.w3.org/2000/svg" viewBox="0 0 824 1168" width="824" height="1168">

<style>
  svg { background:#ffffff; font-family: system-ui, sans-serif; }
  .wl { stroke:#2b7bb9; stroke-width:2; stroke-dasharray:8 6; }
  .hull { fill:#eef1f4; stroke:#1d2733; stroke-width:2; }
  .roof { fill:#dfe5ea; stroke:#1d2733; stroke-width:1.2; }
  .cockpit { fill:#f3e6cc; stroke:#8a6d3b; stroke-width:1.2; }
  .keel { fill:#9aa5b1; stroke:#1d2733; stroke-width:1.5; }
  .spar { fill:#b9c2cc; stroke:#1d2733; stroke-width:1.2; }
  .stay { stroke:#6b7785; stroke-width:1.5; }
  .fit { stroke:#1d2733; stroke-width:2; }
  .fitc { fill:#1d2733; }
  .sail { fill:rgba(255,255,255,0.75); stroke:#5c6b7a; stroke-width:1.4; }
  .sailfoot { stroke:#5c6b7a; stroke-width:2; }
  .sheet { stroke:#d9480f; stroke-width:2.5; }
  .ctl { stroke:#2f9e44; stroke-width:2.5; }
  .ctlthin { stroke:#2f9e44; stroke-width:1.2; stroke-dasharray:5 4; }
  .track { fill:none; stroke:#7048e8; stroke-width:4; }
  .block { fill:#d9480f; }
  .wheel { fill:none; stroke:#1d2733; stroke-width:2; }
  .winch { fill:#495057; }
  .winchopt { fill:none; stroke:#495057; stroke-width:2; stroke-dasharray:3 3; }
  .clutch { fill:#212529; }
  .scale { stroke:#000; stroke-width:3; }
  .origin { fill:#e03131; }
  .lbl { font-size:15px; fill:#1d2733; }
  .title { font-size:20px; font-weight:600; fill:#1d2733; }
  .note { font-size:13px; fill:#5c6b7a; }
</style>
<text class="title" x="60" y="32">Hanse 508 — side view (bow right)</text>
<text class="note" x="60" y="1154">Generated from content/boat/hanse508.json. Approximate (±0.15 m). Not for navigation or construction.</text>
  <line class="wl" x1="60.0" y1="964.0" x2="764.0" y2="964.0"/>
  <text class="lbl" x="686.0" y="956.0" text-anchor="start">waterline y=0</text>
  <polygon class="hull" points="680.0,897.2 680.0,964.0 676.0,964.0 676.0,964.0 653.4,967.9 630.9,971.5 608.3,974.8 585.7,977.7 563.2,980.4 540.6,982.7 518.0,984.7 495.5,986.4 472.9,987.7 450.3,988.8 427.8,989.5 405.2,989.9 382.6,990.0 360.1,989.7 337.5,989.0 314.9,987.8 292.4,986.3 269.8,984.4 247.2,982.0 224.7,979.2 202.1,976.0 179.5,972.4 157.0,968.4 134.4,964.0 100.0,954.0 84.0,950.0 84.0,910.8 268.0,907.2 428.0,904.8 548.0,902.0"/>
  <polygon class="roof" points="508.0,903.2 492.0,890.4 306.0,890.4 306.0,906.0"/>
  <polygon class="keel" points="410.0,988.0 400.0,1044.0 424.0,1044.0 416.0,1060.0 340.0,1060.0 328.0,1050.0 352.0,1044.0 358.0,988.0"/>
  <polygon class="keel" points="124.0,960.0 122.0,1042.0 100.0,1042.0 94.0,960.0"/>
  <line class="fit" x1="252.0" y1="986.0" x2="252.0" y2="1000.0"/>
  <polygon class="spar" points="434.0,890.4 434.0,102.0 422.0,102.0 422.0,890.4"/>
  <line class="fit" x1="422.0" y1="640.0" x2="406.7" y2="640.0"/>
  <line class="fit" x1="422.0" y1="388.0" x2="411.1" y2="388.0"/>
  <line class="stay" x1="674.4" y1="894.0" x2="434.4" y2="120.0"/>
  <line class="stay" x1="422.0" y1="104.0" x2="100.0" y2="908.0"/>
  <polygon class="spar" points="420.0,837.2 170.0,837.2 170.0,844.4 420.0,844.4"/>
  <line class="ctl" x1="420.8" y1="882.0" x2="335.2" y2="840.8"/>
  <line class="ctlthin" x1="422.0" y1="124.0" x2="172.0" y2="840.8"/>
  <line class="sheet" x1="298.0" y1="840.8" x2="304.8" y2="892.0"/>
  <polygon class="sail" points="420.0,838.0 420.0,116.0 174.0,838.0"/>
  <polygon class="sail" points="672.8,888.4 440.4,140.0 444.8,874.8"/>
  <line class="sheet" x1="444.8" y1="874.8" x2="442.0" y2="889.6"/>
  <line class="fit" x1="140.0" y1="924.0" x2="140.0" y2="890.0"/>
  <circle class="wheel" cx="140.0" cy="890.0" r="20.0"/>
  <text class="lbl" x="295.0" y="858.8" text-anchor="middle">boom</text>
  <text class="lbl" x="442.0" y="484.0" text-anchor="start">mast</text>
  <text class="lbl" x="568.0" y="644.0" text-anchor="start">forestay / jib luff</text>
  <text class="lbl" x="260.0" y="604.0" text-anchor="middle">mainsail (in-mast furling)</text>
  <text class="lbl" x="532.0" y="764.0" text-anchor="middle">self-tacking jib</text>
  <text class="lbl" x="300.0" y="874.0" text-anchor="end">mainsheet</text>
  <text class="lbl" x="388.0" y="870.0" text-anchor="middle">vang</text>
  <text class="lbl" x="212.0" y="444.0" text-anchor="middle">topping lift</text>
  <text class="lbl" x="376.0" y="1082.0" text-anchor="middle">L-keel, draft 2.40</text>
  <text class="lbl" x="140.0" y="860.0" text-anchor="middle">twin wheels</text>
  <text class="lbl" x="180.0" y="164.0" text-anchor="middle">backstay</text>
  <line class="scale" x1="72.0" y1="1088.0" x2="272.0" y2="1088.0"/>
  <text class="lbl" x="172.0" y="1080.0" text-anchor="middle">5 m</text>
  <circle class="origin" cx="428.0" cy="964.0" r="5"/>
  <text class="lbl" x="434.0" y="982.0" text-anchor="start">origin (0,0,0)</text>
</svg>
